<svg width="82" height="36" viewBox="0 0 82 36" fill="none" xmlns="http://www.w3.org/2000/svg">
<path d="M0.448 35V30.536C2.496 28.84 4.48 27.16 6.4 25.496C8.352 23.832 10.08 22.184 11.584 20.552C13.12 18.92 14.336 17.336 15.232 15.8C16.16 14.232 16.624 12.712 16.624 11.24C16.624 9.864 16.24 8.648 15.472 7.592C14.736 6.536 13.504 6.008 11.776 6.008C10.016 6.008 8.688 6.584 7.792 7.736C6.896 8.888 6.448 10.28 6.448 11.912H0.496C0.56 9.448 1.104 7.4 2.128 5.768C3.152 4.104 4.512 2.872 6.208 2.072C7.904 1.24 9.808 0.823999 11.92 0.823999C15.344 0.823999 18 1.768 19.888 3.656C21.808 5.512 22.768 7.928 22.768 10.904C22.768 12.76 22.336 14.568 21.472 16.328C20.64 18.088 19.536 19.784 18.16 21.416C16.784 23.048 15.296 24.584 13.696 26.024C12.096 27.432 10.544 28.744 9.04 29.96H23.584V35H0.448ZM40.7339 35.576C38.2699 35.576 36.1419 35.144 34.3499 34.28C32.5899 33.416 31.1979 32.232 30.1739 30.728C29.1819 29.192 28.6059 27.464 28.4459 25.544H34.4459C34.7339 26.92 35.4379 28.072 36.5579 29C37.6779 29.896 39.0699 30.344 40.7339 30.344C42.5259 30.344 43.9819 29.688 45.1019 28.376C46.2539 27.064 46.8299 25.432 46.8299 23.48C46.8299 21.464 46.2539 19.864 45.1019 18.68C43.9819 17.496 42.5579 16.904 40.8299 16.904C39.3899 16.904 38.1419 17.256 37.0859 17.96C36.0299 18.664 35.2779 19.544 34.8299 20.6H28.9259L31.8059 1.4H50.4299V6.776H36.4139L34.8779 14.552C35.5819 13.784 36.5419 13.16 37.7579 12.68C38.9739 12.168 40.3339 11.912 41.8379 11.912C44.2379 11.912 46.2379 12.456 47.8379 13.544C49.4379 14.6 50.6539 16.008 51.4859 17.768C52.3179 19.496 52.7339 21.384 52.7339 23.432C52.7339 25.768 52.2219 27.848 51.1979 29.672C50.2059 31.496 48.7979 32.936 46.9739 33.992C45.1819 35.048 43.1019 35.576 40.7339 35.576ZM57.8755 23.672V18.536H66.8995V10.232H72.1315V18.536H81.1075V23.672H72.1315V31.976H66.8995V23.672H57.8755Z" fill="#222222"/>
</svg>
