<svg width="83" height="35" viewBox="0 0 83 35" fill="none" xmlns="http://www.w3.org/2000/svg">
<path d="M12.312 34.576C9.848 34.576 7.72 34.144 5.928 33.28C4.168 32.416 2.776 31.232 1.752 29.728C0.76 28.192 0.184 26.464 0.024 24.544H6.024C6.312 25.92 7.016 27.072 8.136 28C9.256 28.896 10.648 29.344 12.312 29.344C14.104 29.344 15.56 28.688 16.68 27.376C17.832 26.064 18.408 24.432 18.408 22.48C18.408 20.464 17.832 18.864 16.68 17.68C15.56 16.496 14.136 15.904 12.408 15.904C10.968 15.904 9.72 16.256 8.664 16.96C7.608 17.664 6.856 18.544 6.408 19.6H0.504L3.384 0.399998H22.008V5.776H7.992L6.456 13.552C7.16 12.784 8.12 12.16 9.336 11.68C10.552 11.168 11.912 10.912 13.416 10.912C15.816 10.912 17.816 11.456 19.416 12.544C21.016 13.6 22.232 15.008 23.064 16.768C23.896 18.496 24.312 20.384 24.312 22.432C24.312 24.768 23.8 26.848 22.776 28.672C21.784 30.496 20.376 31.936 18.552 32.992C16.76 34.048 14.68 34.576 12.312 34.576ZM42.0776 34.576C39.6136 34.576 37.4856 34.144 35.6936 33.28C33.9336 32.416 32.5416 31.232 31.5176 29.728C30.5256 28.192 29.9496 26.464 29.7896 24.544H35.7896C36.0776 25.92 36.7816 27.072 37.9016 28C39.0216 28.896 40.4136 29.344 42.0776 29.344C43.8696 29.344 45.3256 28.688 46.4456 27.376C47.5976 26.064 48.1736 24.432 48.1736 22.48C48.1736 20.464 47.5976 18.864 46.4456 17.68C45.3256 16.496 43.9016 15.904 42.1736 15.904C40.7336 15.904 39.4856 16.256 38.4296 16.96C37.3736 17.664 36.6216 18.544 36.1736 19.6H30.2696L33.1496 0.399998H51.7736V5.776H37.7576L36.2216 13.552C36.9256 12.784 37.8856 12.16 39.1016 11.68C40.3176 11.168 41.6776 10.912 43.1816 10.912C45.5816 10.912 47.5816 11.456 49.1816 12.544C50.7816 13.6 51.9976 15.008 52.8296 16.768C53.6616 18.496 54.0776 20.384 54.0776 22.432C54.0776 24.768 53.5656 26.848 52.5416 28.672C51.5496 30.496 50.1416 31.936 48.3176 32.992C46.5256 34.048 44.4456 34.576 42.0776 34.576ZM59.2193 22.672V17.536H68.2433V9.232H73.4753V17.536H82.4513V22.672H73.4753V30.976H68.2433V22.672H59.2193Z" fill="#222222"/>
</svg>
