<svg width="84" height="36" viewBox="0 0 84 36" fill="none" xmlns="http://www.w3.org/2000/svg">
<path d="M13.12 35.576C10.816 35.576 8.736 35.176 6.88 34.376C5.024 33.544 3.536 32.376 2.416 30.872C1.328 29.368 0.784 27.624 0.784 25.64C0.784 23.592 1.312 21.8 2.368 20.264C3.456 18.728 4.88 17.624 6.64 16.952C5.104 16.28 3.888 15.32 2.992 14.072C2.096 12.792 1.648 11.368 1.648 9.8C1.648 8.2 2.08 6.728 2.944 5.384C3.808 4.008 5.088 2.904 6.784 2.072C8.512 1.24 10.624 0.823999 13.12 0.823999C15.616 0.823999 17.712 1.24 19.408 2.072C21.104 2.904 22.384 4.008 23.248 5.384C24.112 6.728 24.544 8.2 24.544 9.8C24.544 11.336 24.08 12.76 23.152 14.072C22.256 15.352 21.056 16.312 19.552 16.952C21.344 17.624 22.768 18.728 23.824 20.264C24.88 21.8 25.408 23.592 25.408 25.64C25.408 27.624 24.864 29.368 23.776 30.872C22.688 32.376 21.2 33.544 19.312 34.376C17.456 35.176 15.392 35.576 13.12 35.576ZM13.12 15.128C14.784 15.128 16.096 14.696 17.056 13.832C18.016 12.968 18.496 11.864 18.496 10.52C18.496 9.048 18.016 7.896 17.056 7.064C16.128 6.232 14.816 5.816 13.12 5.816C11.392 5.816 10.064 6.232 9.136 7.064C8.208 7.896 7.744 9.048 7.744 10.52C7.744 11.896 8.208 13.016 9.136 13.88C10.096 14.712 11.424 15.128 13.12 15.128ZM13.12 30.44C15.168 30.44 16.72 29.944 17.776 28.952C18.832 27.928 19.36 26.648 19.36 25.112C19.36 23.416 18.8 22.088 17.68 21.128C16.592 20.168 15.072 19.688 13.12 19.688C11.168 19.688 9.616 20.168 8.464 21.128C7.344 22.088 6.784 23.416 6.784 25.112C6.784 26.648 7.312 27.928 8.368 28.952C9.456 29.944 11.04 30.44 13.12 30.44ZM43.4995 35.576C41.0355 35.576 38.9075 35.144 37.1155 34.28C35.3555 33.416 33.9635 32.232 32.9395 30.728C31.9475 29.192 31.3715 27.464 31.2115 25.544H37.2115C37.4995 26.92 38.2035 28.072 39.3235 29C40.4435 29.896 41.8355 30.344 43.4995 30.344C45.2915 30.344 46.7475 29.688 47.8675 28.376C49.0195 27.064 49.5955 25.432 49.5955 23.48C49.5955 21.464 49.0195 19.864 47.8675 18.68C46.7475 17.496 45.3235 16.904 43.5955 16.904C42.1555 16.904 40.9075 17.256 39.8515 17.96C38.7955 18.664 38.0435 19.544 37.5955 20.6H31.6915L34.5715 1.4H53.1955V6.776H39.1795L37.6435 14.552C38.3475 13.784 39.3075 13.16 40.5235 12.68C41.7395 12.168 43.0995 11.912 44.6035 11.912C47.0035 11.912 49.0035 12.456 50.6035 13.544C52.2035 14.6 53.4195 16.008 54.2515 17.768C55.0835 19.496 55.4995 21.384 55.4995 23.432C55.4995 25.768 54.9875 27.848 53.9635 29.672C52.9715 31.496 51.5635 32.936 49.7395 33.992C47.9475 35.048 45.8675 35.576 43.4995 35.576ZM60.6411 23.672V18.536H69.6651V10.232H74.8971V18.536H83.8731V23.672H74.8971V31.976H69.6651V23.672H60.6411Z" fill="#222222"/>
</svg>
