<svg width="209" height="80" viewBox="0 0 209 80" fill="none" xmlns="http://www.w3.org/2000/svg">
<path d="M66.2344 40.9581C69.461 40.6723 72 37.956 72 34.6562V14.9688C72 11.4794 69.1612 8.64062 65.6719 8.64062H44.7188C41.2294 8.64062 38.3906 11.4794 38.3906 14.9688V23.2656H12.0938C8.60442 23.2656 5.76562 26.1044 5.76562 29.5938V54.9062C5.76562 55.6457 5.8943 56.3554 6.12844 57.0156H3.79688C1.70325 57.0156 0 58.7189 0 60.8125C0 66.628 4.73133 71.3594 10.5469 71.3594H61.4531C67.2687 71.3594 72 66.628 72 60.8125C72 58.7189 70.2968 57.0156 68.2031 57.0156H65.8716C66.1057 56.3554 66.2344 55.6457 66.2344 54.9062V40.9581ZM42.6094 14.9688C42.6094 13.8056 43.5556 12.8594 44.7188 12.8594H65.6719C66.835 12.8594 67.7812 13.8056 67.7812 14.9688V34.6562C67.7812 35.8194 66.835 36.7656 65.6719 36.7656H46.125C45.7296 36.7656 45.3423 36.8767 45.007 37.0863L40.754 39.7445L42.5205 33.8561C42.5794 33.6595 42.6094 33.4553 42.6094 33.25V14.9688ZM61.4531 67.1406H10.5469C7.1993 67.1406 4.45064 64.5277 4.23267 61.2344H67.7673C67.5494 64.5277 64.8007 67.1406 61.4531 67.1406ZM20.1094 41.125C20.1094 39.8068 21.1818 38.7344 22.5 38.7344C23.8182 38.7344 24.8906 39.8068 24.8906 41.125C24.8906 42.4432 23.8182 43.5156 22.5 43.5156C21.1818 43.5156 20.1094 42.4432 20.1094 41.125ZM18.9844 50.125C18.9844 48.8515 20.6272 47.7344 22.5 47.7344C23.5043 47.7344 24.472 48.0477 25.1549 48.594C25.4765 48.8512 26.0156 49.3921 26.0156 50.125V57.0156H18.9844V50.125ZM30.2344 57.0156V50.125C30.2344 48.3011 29.3437 46.5423 27.7903 45.2997C27.7554 45.2718 27.719 45.2456 27.6836 45.2183C28.5751 44.0916 29.1094 42.6699 29.1094 41.125C29.1094 37.4806 26.1444 34.5156 22.5 34.5156C18.8556 34.5156 15.8906 37.4806 15.8906 41.125C15.8906 42.6717 16.4261 44.0947 17.3194 45.222C15.7523 46.4323 14.7656 48.182 14.7656 50.125V57.0156H12.0938C10.9306 57.0156 9.98438 56.0694 9.98438 54.9062V29.5938C9.98438 28.4306 10.9306 27.4844 12.0938 27.4844H38.3906V32.9405L36.7131 38.5322C36.2036 40.2303 36.7851 42.0228 38.1946 43.0983C38.9538 43.6776 39.85 43.9704 40.7505 43.9704C41.5216 43.9704 42.2961 43.7555 42.9896 43.322L46.73 40.9844H62.0156V54.9062C62.0156 56.0694 61.0694 57.0156 59.9062 57.0156H30.2344Z" fill="#086CF9"/>
<path d="M57.375 27.7656H52.875C51.7101 27.7656 50.7656 28.7101 50.7656 29.875C50.7656 31.0399 51.7101 31.9844 52.875 31.9844H57.375C58.5399 31.9844 59.4844 31.0399 59.4844 29.875C59.4844 28.7101 58.5399 27.7656 57.375 27.7656Z" fill="#086CF9"/>
<path d="M49.5 21.8594H60.75C61.9149 21.8594 62.8594 20.9149 62.8594 19.75C62.8594 18.5851 61.9149 17.6406 60.75 17.6406H49.5C48.3351 17.6406 47.3906 18.5851 47.3906 19.75C47.3906 20.9149 48.3351 21.8594 49.5 21.8594Z" fill="#086CF9"/>
<path d="M101.184 36V16.056L97.044 17.028V13.5L103.128 10.8H105.972V36H101.184ZM122.378 36V31.32H109.958V27.648L121.766 10.8H126.986V27.324H130.298V31.32H126.986V36H122.378ZM114.89 27.324H122.666V15.876L114.89 27.324ZM144.253 36.432C141.925 36.432 139.933 35.892 138.277 34.812C136.621 33.708 135.337 32.184 134.425 30.24C133.537 28.272 133.093 25.992 133.093 23.4C133.093 20.832 133.537 18.564 134.425 16.596C135.337 14.628 136.621 13.104 138.277 12.024C139.933 10.92 141.925 10.368 144.253 10.368C146.581 10.368 148.573 10.92 150.229 12.024C151.885 13.104 153.157 14.628 154.045 16.596C154.957 18.564 155.413 20.832 155.413 23.4C155.413 25.992 154.957 28.272 154.045 30.24C153.157 32.184 151.885 33.708 150.229 34.812C148.573 35.892 146.581 36.432 144.253 36.432ZM144.253 32.292C146.149 32.292 147.697 31.5 148.897 29.916C150.097 28.332 150.697 26.16 150.697 23.4C150.697 20.64 150.097 18.468 148.897 16.884C147.697 15.3 146.149 14.508 144.253 14.508C142.333 14.508 140.773 15.3 139.573 16.884C138.397 18.468 137.809 20.64 137.809 23.4C137.809 26.16 138.397 28.332 139.573 29.916C140.773 31.5 142.333 32.292 144.253 32.292ZM169.811 36.432C167.483 36.432 165.491 35.892 163.835 34.812C162.179 33.708 160.895 32.184 159.983 30.24C159.095 28.272 158.651 25.992 158.651 23.4C158.651 20.832 159.095 18.564 159.983 16.596C160.895 14.628 162.179 13.104 163.835 12.024C165.491 10.92 167.483 10.368 169.811 10.368C172.139 10.368 174.131 10.92 175.787 12.024C177.443 13.104 178.715 14.628 179.603 16.596C180.515 18.564 180.971 20.832 180.971 23.4C180.971 25.992 180.515 28.272 179.603 30.24C178.715 32.184 177.443 33.708 175.787 34.812C174.131 35.892 172.139 36.432 169.811 36.432ZM169.811 32.292C171.707 32.292 173.255 31.5 174.455 29.916C175.655 28.332 176.255 26.16 176.255 23.4C176.255 20.64 175.655 18.468 174.455 16.884C173.255 15.3 171.707 14.508 169.811 14.508C167.891 14.508 166.331 15.3 165.131 16.884C163.955 18.468 163.367 20.64 163.367 23.4C163.367 26.16 163.955 28.332 165.131 29.916C166.331 31.5 167.891 32.292 169.811 32.292ZM184.606 27.504V23.652H191.374V17.424H195.298V23.652H202.03V27.504H195.298V33.732H191.374V27.504H184.606Z" fill="#222222"/>
<path d="M102.272 73.192C101.173 73.192 100.208 72.952 99.376 72.472C98.5547 71.9813 97.9093 71.2987 97.44 70.424C96.9813 69.5493 96.752 68.5413 96.752 67.4C96.752 66.2587 96.9813 65.256 97.44 64.392C97.9093 63.5173 98.5547 62.8347 99.376 62.344C100.208 61.8533 101.173 61.608 102.272 61.608C103.381 61.608 104.347 61.8533 105.168 62.344C106 62.8347 106.645 63.5173 107.104 64.392C107.563 65.256 107.792 66.2587 107.792 67.4C107.792 68.5413 107.563 69.5493 107.104 70.424C106.645 71.2987 106 71.9813 105.168 72.472C104.347 72.952 103.381 73.192 102.272 73.192ZM102.272 72.008C103.093 72.008 103.813 71.8267 104.432 71.464C105.061 71.0907 105.547 70.5627 105.888 69.88C106.24 69.1867 106.416 68.36 106.416 67.4C106.416 66.44 106.24 65.6187 105.888 64.936C105.547 64.2533 105.061 63.7307 104.432 63.368C103.813 62.9947 103.093 62.808 102.272 62.808C101.451 62.808 100.725 62.9947 100.096 63.368C99.4773 63.7307 98.992 64.2533 98.64 64.936C98.2987 65.6187 98.128 66.44 98.128 67.4C98.128 68.36 98.2987 69.1867 98.64 69.88C98.992 70.5627 99.4773 71.0907 100.096 71.464C100.725 71.8267 101.451 72.008 102.272 72.008ZM109.651 73V65.064H110.867L110.947 66.488C111.203 65.9867 111.571 65.592 112.051 65.304C112.531 65.016 113.075 64.872 113.683 64.872C114.622 64.872 115.368 65.16 115.923 65.736C116.488 66.3013 116.771 67.176 116.771 68.36V73H115.427V68.504C115.427 66.8507 114.744 66.024 113.379 66.024C112.696 66.024 112.126 66.2747 111.667 66.776C111.219 67.2667 110.995 67.9707 110.995 68.888V73H109.651ZM118.807 73V61.48H120.151V73H118.807ZM123.17 63.304C122.903 63.304 122.679 63.2187 122.498 63.048C122.327 62.8667 122.242 62.6427 122.242 62.376C122.242 62.12 122.327 61.9067 122.498 61.736C122.679 61.5653 122.903 61.48 123.17 61.48C123.426 61.48 123.645 61.5653 123.826 61.736C124.007 61.9067 124.098 62.12 124.098 62.376C124.098 62.6427 124.007 62.8667 123.826 63.048C123.645 63.2187 123.426 63.304 123.17 63.304ZM122.498 73V65.064H123.842V73H122.498ZM126.182 73V65.064H127.398L127.478 66.488C127.734 65.9867 128.102 65.592 128.582 65.304C129.062 65.016 129.606 64.872 130.214 64.872C131.153 64.872 131.899 65.16 132.454 65.736C133.019 66.3013 133.302 67.176 133.302 68.36V73H131.958V68.504C131.958 66.8507 131.275 66.024 129.91 66.024C129.227 66.024 128.657 66.2747 128.198 66.776C127.75 67.2667 127.526 67.9707 127.526 68.888V73H126.182ZM138.906 73.192C138.149 73.192 137.477 73.0213 136.89 72.68C136.304 72.328 135.84 71.8427 135.498 71.224C135.168 70.6053 135.002 69.8747 135.002 69.032C135.002 68.2 135.168 67.4747 135.498 66.856C135.829 66.2267 136.288 65.7413 136.874 65.4C137.472 65.048 138.16 64.872 138.938 64.872C139.706 64.872 140.368 65.048 140.922 65.4C141.488 65.7413 141.92 66.1947 142.218 66.76C142.517 67.3253 142.666 67.9333 142.666 68.584C142.666 68.7013 142.661 68.8187 142.65 68.936C142.65 69.0533 142.65 69.1867 142.65 69.336H136.33C136.362 69.944 136.501 70.4507 136.746 70.856C137.002 71.2507 137.317 71.5493 137.69 71.752C138.074 71.9547 138.48 72.056 138.906 72.056C139.461 72.056 139.925 71.928 140.298 71.672C140.672 71.416 140.944 71.0693 141.114 70.632H142.442C142.229 71.368 141.818 71.9813 141.21 72.472C140.613 72.952 139.845 73.192 138.906 73.192ZM138.906 66.008C138.266 66.008 137.696 66.2053 137.194 66.6C136.704 66.984 136.421 67.5493 136.346 68.296H141.338C141.306 67.5813 141.061 67.0213 140.602 66.616C140.144 66.2107 139.578 66.008 138.906 66.008ZM153.674 73.192C152.575 73.192 151.626 72.952 150.826 72.472C150.037 71.9813 149.423 71.304 148.986 70.44C148.549 69.5653 148.33 68.552 148.33 67.4C148.33 66.2587 148.549 65.256 148.986 64.392C149.423 63.5173 150.037 62.8347 150.826 62.344C151.626 61.8533 152.575 61.608 153.674 61.608C154.954 61.608 155.994 61.9173 156.794 62.536C157.605 63.144 158.122 63.9973 158.346 65.096H156.858C156.687 64.4027 156.335 63.848 155.802 63.432C155.279 63.0053 154.57 62.792 153.674 62.792C152.874 62.792 152.175 62.9787 151.578 63.352C150.981 63.7147 150.517 64.2427 150.186 64.936C149.866 65.6187 149.706 66.44 149.706 67.4C149.706 68.36 149.866 69.1867 150.186 69.88C150.517 70.5627 150.981 71.0907 151.578 71.464C152.175 71.8267 152.874 72.008 153.674 72.008C154.57 72.008 155.279 71.8053 155.802 71.4C156.335 70.984 156.687 70.4347 156.858 69.752H158.346C158.122 70.8293 157.605 71.672 156.794 72.28C155.994 72.888 154.954 73.192 153.674 73.192ZM163.814 73.192C163.067 73.192 162.395 73.0213 161.798 72.68C161.2 72.3387 160.726 71.8587 160.374 71.24C160.032 70.6107 159.862 69.8747 159.862 69.032C159.862 68.1893 160.038 67.4587 160.39 66.84C160.742 66.2107 161.216 65.7253 161.814 65.384C162.422 65.0427 163.099 64.872 163.846 64.872C164.592 64.872 165.264 65.0427 165.862 65.384C166.459 65.7253 166.928 66.2107 167.27 66.84C167.622 67.4587 167.798 68.1893 167.798 69.032C167.798 69.8747 167.622 70.6107 167.27 71.24C166.918 71.8587 166.438 72.3387 165.83 72.68C165.232 73.0213 164.56 73.192 163.814 73.192ZM163.814 72.04C164.272 72.04 164.699 71.928 165.094 71.704C165.488 71.48 165.808 71.144 166.054 70.696C166.299 70.248 166.422 69.6933 166.422 69.032C166.422 68.3707 166.299 67.816 166.054 67.368C165.819 66.92 165.504 66.584 165.11 66.36C164.715 66.136 164.294 66.024 163.846 66.024C163.387 66.024 162.96 66.136 162.566 66.36C162.171 66.584 161.851 66.92 161.606 67.368C161.36 67.816 161.238 68.3707 161.238 69.032C161.238 69.6933 161.36 70.248 161.606 70.696C161.851 71.144 162.166 71.48 162.55 71.704C162.944 71.928 163.366 72.04 163.814 72.04ZM172.562 73.192C171.624 73.192 170.877 72.9093 170.323 72.344C169.768 71.768 169.491 70.888 169.491 69.704V65.064H170.835V69.56C170.835 71.2133 171.512 72.04 172.867 72.04C173.56 72.04 174.131 71.7947 174.579 71.304C175.037 70.8027 175.267 70.0933 175.267 69.176V65.064H176.611V73H175.395L175.299 71.576C175.053 72.0773 174.685 72.472 174.195 72.76C173.715 73.048 173.171 73.192 172.562 73.192ZM178.823 73V65.064H180.039L180.151 66.584C180.396 66.0613 180.769 65.6453 181.271 65.336C181.772 65.0267 182.391 64.872 183.127 64.872V66.28H182.759C182.289 66.28 181.857 66.3653 181.463 66.536C181.068 66.696 180.753 66.9733 180.519 67.368C180.284 67.7627 180.167 68.3067 180.167 69V73H178.823ZM187.675 73.192C186.726 73.192 185.937 72.952 185.307 72.472C184.678 71.992 184.31 71.3413 184.203 70.52H185.579C185.665 70.936 185.883 71.2987 186.235 71.608C186.598 71.9067 187.083 72.056 187.691 72.056C188.257 72.056 188.673 71.9387 188.939 71.704C189.206 71.4587 189.339 71.1707 189.339 70.84C189.339 70.36 189.163 70.04 188.811 69.88C188.47 69.72 187.985 69.576 187.355 69.448C186.929 69.3627 186.502 69.24 186.075 69.08C185.649 68.92 185.291 68.696 185.003 68.408C184.715 68.1093 184.571 67.72 184.571 67.24C184.571 66.5467 184.827 65.9813 185.339 65.544C185.862 65.096 186.566 64.872 187.451 64.872C188.294 64.872 188.982 65.0853 189.515 65.512C190.059 65.928 190.374 66.5253 190.459 67.304H189.131C189.078 66.8987 188.902 66.584 188.603 66.36C188.315 66.1253 187.926 66.008 187.435 66.008C186.955 66.008 186.582 66.1093 186.315 66.312C186.059 66.5147 185.931 66.7813 185.931 67.112C185.931 67.432 186.097 67.6827 186.427 67.864C186.769 68.0453 187.227 68.2 187.803 68.328C188.294 68.4347 188.758 68.568 189.195 68.728C189.643 68.8773 190.006 69.1067 190.283 69.416C190.571 69.7147 190.715 70.152 190.715 70.728C190.726 71.4427 190.454 72.0347 189.899 72.504C189.355 72.9627 188.614 73.192 187.675 73.192ZM196.203 73.192C195.446 73.192 194.774 73.0213 194.187 72.68C193.601 72.328 193.137 71.8427 192.795 71.224C192.465 70.6053 192.299 69.8747 192.299 69.032C192.299 68.2 192.465 67.4747 192.795 66.856C193.126 66.2267 193.585 65.7413 194.171 65.4C194.769 65.048 195.457 64.872 196.235 64.872C197.003 64.872 197.665 65.048 198.219 65.4C198.785 65.7413 199.217 66.1947 199.515 66.76C199.814 67.3253 199.963 67.9333 199.963 68.584C199.963 68.7013 199.958 68.8187 199.947 68.936C199.947 69.0533 199.947 69.1867 199.947 69.336H193.627C193.659 69.944 193.798 70.4507 194.043 70.856C194.299 71.2507 194.614 71.5493 194.987 71.752C195.371 71.9547 195.777 72.056 196.203 72.056C196.758 72.056 197.222 71.928 197.595 71.672C197.969 71.416 198.241 71.0693 198.411 70.632H199.739C199.526 71.368 199.115 71.9813 198.507 72.472C197.91 72.952 197.142 73.192 196.203 73.192ZM196.203 66.008C195.563 66.008 194.993 66.2053 194.491 66.6C194.001 66.984 193.718 67.5493 193.643 68.296H198.635C198.603 67.5813 198.358 67.0213 197.899 66.616C197.441 66.2107 196.875 66.008 196.203 66.008ZM204.785 73.192C203.835 73.192 203.046 72.952 202.417 72.472C201.787 71.992 201.419 71.3413 201.313 70.52H202.689C202.774 70.936 202.993 71.2987 203.345 71.608C203.707 71.9067 204.193 72.056 204.801 72.056C205.366 72.056 205.782 71.9387 206.049 71.704C206.315 71.4587 206.449 71.1707 206.449 70.84C206.449 70.36 206.273 70.04 205.921 69.88C205.579 69.72 205.094 69.576 204.465 69.448C204.038 69.3627 203.611 69.24 203.185 69.08C202.758 68.92 202.401 68.696 202.113 68.408C201.825 68.1093 201.681 67.72 201.681 67.24C201.681 66.5467 201.937 65.9813 202.449 65.544C202.971 65.096 203.675 64.872 204.561 64.872C205.403 64.872 206.091 65.0853 206.625 65.512C207.169 65.928 207.483 66.5253 207.569 67.304H206.241C206.187 66.8987 206.011 66.584 205.713 66.36C205.425 66.1253 205.035 66.008 204.545 66.008C204.065 66.008 203.691 66.1093 203.425 66.312C203.169 66.5147 203.041 66.7813 203.041 67.112C203.041 67.432 203.206 67.6827 203.537 67.864C203.878 68.0453 204.337 68.2 204.913 68.328C205.403 68.4347 205.867 68.568 206.305 68.728C206.753 68.8773 207.115 69.1067 207.393 69.416C207.681 69.7147 207.825 70.152 207.825 70.728C207.835 71.4427 207.563 72.0347 207.009 72.504C206.465 72.9627 205.723 73.192 204.785 73.192Z" fill="#086CF9"/>
</svg>
