<svg width="229" height="80" viewBox="0 0 229 80" fill="none" xmlns="http://www.w3.org/2000/svg">
<path d="M70.5938 6.81641H1.40625C0.629578 6.81641 0 7.44613 0 8.22266V71.7764C0 72.553 0.629578 73.1827 1.40625 73.1827H15.0469C15.8235 73.1827 16.4531 72.553 16.4531 71.7764C16.4531 70.9999 15.8235 70.3702 15.0469 70.3702H2.8125V19.7467C2.85891 19.7514 2.90602 19.7539 2.95369 19.7539H69.1875V70.3702H66.6861V64.2945C66.6861 61.5491 64.9351 59.1241 62.3291 58.2608L57.3667 56.6164C57.9724 55.9037 58.4667 55.0942 58.8233 54.2142H63.002C63.7786 54.2142 64.4082 53.5845 64.4082 52.808V48.8416C64.4082 41.2498 58.2318 35.0733 50.6399 35.0733C43.048 35.0733 36.8716 41.2498 36.8716 48.8416V52.808C36.8716 53.5845 37.5012 54.2142 38.2778 54.2142H42.4565C42.8133 55.0942 43.3074 55.9037 43.9131 56.6164L38.9507 58.2608C36.3447 59.1241 34.5938 61.5489 34.5938 64.2943V70.37H28.0529C27.2762 70.37 26.6466 70.9998 26.6466 71.7763C26.6466 72.5528 27.2762 73.1825 28.0529 73.1825H36H65.2798H70.5938C71.3704 73.1825 72 72.5528 72 71.7763V8.22266C72 7.44598 71.3704 6.81641 70.5938 6.81641ZM61.5957 51.4016H59.4533C59.4623 51.2383 59.4678 51.074 59.4678 50.9085V48.9724C59.4678 48.9593 59.4668 48.9465 59.4668 48.9336H61.5957V51.4016ZM39.6841 51.4016V48.9336H41.813C41.813 48.9467 41.812 48.9595 41.812 48.9724V50.9085C41.812 51.074 41.8175 51.2383 41.8265 51.4016H39.6841ZM42.2872 46.121H40.0262C41.2391 41.3916 45.5376 37.8855 50.6399 37.8855C55.7422 37.8855 60.0407 41.3916 61.2536 46.121H58.9926C57.8039 42.6486 54.5099 40.1444 50.6399 40.1444C46.7699 40.1444 43.4759 42.6486 42.2872 46.121ZM50.6399 50.7382C49.8632 50.7382 49.2337 51.368 49.2337 52.1445V53.5977C49.2337 54.3742 49.8632 55.004 50.6399 55.004H55.0403C54.7213 55.3465 54.3634 55.6522 53.9729 55.9131C53.8805 55.9581 53.7931 56.0131 53.7124 56.0773C52.8124 56.6143 51.7618 56.9239 50.6399 56.9239C49.518 56.9239 48.4675 56.6144 47.5677 56.0775C47.4868 56.0132 47.3993 55.9581 47.3067 55.9129C45.691 54.8332 44.6245 52.9933 44.6245 50.9085V48.9724C44.6245 45.6555 47.323 42.957 50.6399 42.957C53.9568 42.957 56.6553 45.6555 56.6553 48.9724V50.9085C56.6553 51.3488 56.6063 51.7777 56.5162 52.1915H52.0462V52.1445C52.0462 51.368 51.4166 50.7382 50.6399 50.7382ZM63.8734 70.37H37.4062V64.2943C37.4062 62.7636 38.3825 61.4118 39.8354 60.9303L46.5228 58.7141C47.753 59.3656 49.1536 59.7363 50.6399 59.7363C52.1262 59.7363 53.5268 59.3656 54.757 58.7141L61.4444 60.9303C62.8973 61.4118 63.8734 62.7636 63.8734 64.2943V70.37ZM69.1875 16.9414H2.95369C2.90602 16.9414 2.85891 16.9439 2.8125 16.9486V9.62891H69.1875V16.9414Z" fill="#086CF9"/>
<path d="M22.7181 70.7831C22.4565 70.5203 22.0937 70.3711 21.7239 70.3711C21.3526 70.3711 20.9912 70.5203 20.7297 70.7831C20.4667 71.0447 20.3176 71.4075 20.3176 71.7773C20.3176 72.1472 20.4667 72.51 20.7297 72.7716C20.9912 73.033 21.3526 73.1836 21.7239 73.1836C22.0937 73.1836 22.4565 73.0331 22.7181 72.7716C22.9797 72.51 23.1301 72.1472 23.1301 71.7773C23.1301 71.4075 22.9797 71.0447 22.7181 70.7831Z" fill="#086CF9"/>
<path d="M63.0001 11.8789H31.228C30.4514 11.8789 29.8218 12.5086 29.8218 13.2852C29.8218 14.0617 30.4514 14.6914 31.228 14.6914H63.0001C63.7768 14.6914 64.4064 14.0617 64.4064 13.2852C64.4064 12.5086 63.7768 11.8789 63.0001 11.8789Z" fill="#086CF9"/>
<path d="M15.6192 12.2919C15.3577 12.0302 14.9948 11.8799 14.625 11.8799C14.2552 11.8799 13.8923 12.0302 13.6308 12.2919C13.3692 12.5533 13.2188 12.9161 13.2188 13.2861C13.2188 13.656 13.3692 14.0188 13.6308 14.2802C13.8923 14.5418 14.2552 14.6924 14.625 14.6924C14.9948 14.6924 15.3577 14.5419 15.6192 14.2802C15.8808 14.0188 16.0312 13.656 16.0312 13.2861C16.0312 12.9161 15.8808 12.5533 15.6192 12.2919Z" fill="#086CF9"/>
<path d="M9.99422 12.2919C9.73266 12.0302 9.36984 11.8799 9 11.8799C8.63016 11.8799 8.26734 12.0302 8.00578 12.2919C7.74422 12.5533 7.59375 12.9161 7.59375 13.2861C7.59375 13.656 7.74422 14.0188 8.00578 14.2802C8.26734 14.5418 8.63016 14.6924 9 14.6924C9.36984 14.6924 9.73266 14.5419 9.99422 14.2802C10.2558 14.0188 10.4062 13.656 10.4062 13.2861C10.4062 12.9161 10.2558 12.5533 9.99422 12.2919Z" fill="#086CF9"/>
<path d="M21.2442 12.2919C20.9827 12.0302 20.6198 11.8799 20.25 11.8799C19.8802 11.8799 19.5173 12.0302 19.2558 12.2919C18.9942 12.5533 18.8438 12.9161 18.8438 13.2861C18.8438 13.656 18.9942 14.0188 19.2558 14.2802C19.5173 14.5418 19.8802 14.6924 20.25 14.6924C20.6198 14.6924 20.9827 14.5419 21.2442 14.2802C21.5058 14.0188 21.6562 13.656 21.6562 13.2861C21.6562 12.9161 21.5058 12.5533 21.2442 12.2919Z" fill="#086CF9"/>
<path d="M30.1428 23.4102H13.3073C10.1568 23.4102 7.59375 25.9733 7.59375 29.1239V40.7589C7.59375 43.9095 10.1569 46.4727 13.3073 46.4727H30.1427C33.2933 46.4727 35.8564 43.9095 35.8564 40.7589V29.1239C35.8564 25.9733 33.2932 23.4102 30.1428 23.4102ZM30.1428 43.6602H13.3073C11.7077 43.6602 10.4062 42.3587 10.4062 40.7589V29.1239C10.4062 27.5241 11.7077 26.2227 13.3073 26.2227H30.1427C31.7423 26.2227 33.0438 27.5241 33.0438 29.1239V40.7589H33.0439C33.0439 42.3587 31.7424 43.6602 30.1428 43.6602Z" fill="#086CF9"/>
<path d="M25.9277 32.5789L20.5523 29.1334C19.6881 28.5795 18.5915 28.5412 17.6906 29.0337C16.7898 29.5263 16.2302 30.47 16.2302 31.4968V38.3877C16.2302 39.4144 16.7898 40.3581 17.6906 40.8507C18.1114 41.0808 18.5749 41.195 19.0374 41.195C19.5651 41.195 20.0918 41.0462 20.5523 40.751L25.9277 37.3056C26.7369 36.7869 27.2201 35.9034 27.2201 34.9422C27.2201 33.981 26.7367 33.0975 25.9277 32.5789ZM19.0427 38.3773L19.0431 31.5067L24.4027 34.9423L19.0427 38.3773Z" fill="#086CF9"/>
<path d="M19.3351 57.1602H9C8.22333 57.1602 7.59375 57.7899 7.59375 58.5664C7.59375 59.3429 8.22333 59.9727 9 59.9727H19.3351C20.1118 59.9727 20.7413 59.3429 20.7413 58.5664C20.7413 57.7899 20.1118 57.1602 19.3351 57.1602Z" fill="#086CF9"/>
<path d="M29.6459 57.1602H25.75C24.9733 57.1602 24.3438 57.7899 24.3438 58.5664C24.3438 59.3429 24.9733 59.9727 25.75 59.9727H29.6459C30.4225 59.9727 31.0521 59.3429 31.0521 58.5664C31.0521 57.7899 30.4225 57.1602 29.6459 57.1602Z" fill="#086CF9"/>
<path d="M23.82 50.4102H9C8.22333 50.4102 7.59375 51.0399 7.59375 51.8164C7.59375 52.5929 8.22333 53.2227 9 53.2227H23.82C24.5967 53.2227 25.2263 52.5929 25.2263 51.8164C25.2263 51.0399 24.5967 50.4102 23.82 50.4102Z" fill="#086CF9"/>
<path d="M30.6912 50.8222C30.4297 50.5606 30.0669 50.4102 29.697 50.4102C29.3258 50.4102 28.9644 50.5605 28.7028 50.8222C28.4412 51.0836 28.2908 51.4464 28.2908 51.8164C28.2908 52.1862 28.4412 52.5491 28.7028 52.8105C28.9644 53.072 29.3258 53.2227 29.697 53.2227C30.0669 53.2227 30.4297 53.0722 30.6912 52.8105C30.9528 52.5491 31.1033 52.1862 31.1033 51.8164C31.1033 51.4466 30.9528 51.0838 30.6912 50.8222Z" fill="#086CF9"/>
<path d="M29.6438 63.9102H9C8.22333 63.9102 7.59375 64.5399 7.59375 65.3164C7.59375 66.0929 8.22333 66.7227 9 66.7227H29.6438C30.4204 66.7227 31.05 66.0929 31.05 65.3164C31.05 64.5399 30.4204 63.9102 29.6438 63.9102Z" fill="#086CF9"/>
<path d="M101.184 36V16.056L97.044 17.028V13.5L103.128 10.8H105.972V36H101.184ZM113.594 36V16.056L109.454 17.028V13.5L115.538 10.8H118.382V36H113.594ZM133.6 36.432C131.272 36.432 129.28 35.892 127.624 34.812C125.968 33.708 124.684 32.184 123.772 30.24C122.884 28.272 122.44 25.992 122.44 23.4C122.44 20.832 122.884 18.564 123.772 16.596C124.684 14.628 125.968 13.104 127.624 12.024C129.28 10.92 131.272 10.368 133.6 10.368C135.928 10.368 137.92 10.92 139.576 12.024C141.232 13.104 142.504 14.628 143.392 16.596C144.304 18.564 144.76 20.832 144.76 23.4C144.76 25.992 144.304 28.272 143.392 30.24C142.504 32.184 141.232 33.708 139.576 34.812C137.92 35.892 135.928 36.432 133.6 36.432ZM133.6 32.292C135.496 32.292 137.044 31.5 138.244 29.916C139.444 28.332 140.044 26.16 140.044 23.4C140.044 20.64 139.444 18.468 138.244 16.884C137.044 15.3 135.496 14.508 133.6 14.508C131.68 14.508 130.12 15.3 128.92 16.884C127.744 18.468 127.156 20.64 127.156 23.4C127.156 26.16 127.744 28.332 128.92 29.916C130.12 31.5 131.68 32.292 133.6 32.292ZM159.159 36.432C156.831 36.432 154.839 35.892 153.183 34.812C151.527 33.708 150.243 32.184 149.331 30.24C148.443 28.272 147.999 25.992 147.999 23.4C147.999 20.832 148.443 18.564 149.331 16.596C150.243 14.628 151.527 13.104 153.183 12.024C154.839 10.92 156.831 10.368 159.159 10.368C161.487 10.368 163.479 10.92 165.135 12.024C166.791 13.104 168.063 14.628 168.951 16.596C169.863 18.564 170.319 20.832 170.319 23.4C170.319 25.992 169.863 28.272 168.951 30.24C168.063 32.184 166.791 33.708 165.135 34.812C163.479 35.892 161.487 36.432 159.159 36.432ZM159.159 32.292C161.055 32.292 162.603 31.5 163.803 29.916C165.003 28.332 165.603 26.16 165.603 23.4C165.603 20.64 165.003 18.468 163.803 16.884C162.603 15.3 161.055 14.508 159.159 14.508C157.239 14.508 155.679 15.3 154.479 16.884C153.303 18.468 152.715 20.64 152.715 23.4C152.715 26.16 153.303 28.332 154.479 29.916C155.679 31.5 157.239 32.292 159.159 32.292ZM173.954 27.504V23.652H180.722V17.424H184.646V23.652H191.378V27.504H184.646V33.732H180.722V27.504H173.954Z" fill="#222222"/>
<path d="M97.184 73V61.8H104.112V62.904H98.528V66.808H103.632V67.896H98.528V71.896H104.112V73H97.184ZM105.335 73L108.087 69.032L105.335 65.064H106.791L109.015 68.344L111.255 65.064H112.695L109.943 69.032L112.695 73H111.255L109.015 69.72L106.791 73H105.335ZM114.104 76.52V65.064H115.32L115.448 66.376C115.704 65.992 116.067 65.6453 116.536 65.336C117.016 65.0267 117.624 64.872 118.36 64.872C119.149 64.872 119.837 65.0533 120.424 65.416C121.011 65.7787 121.464 66.2747 121.784 66.904C122.115 67.5333 122.28 68.248 122.28 69.048C122.28 69.848 122.115 70.5627 121.784 71.192C121.464 71.8107 121.005 72.3013 120.408 72.664C119.821 73.016 119.133 73.192 118.344 73.192C117.693 73.192 117.112 73.0587 116.6 72.792C116.099 72.5253 115.715 72.152 115.448 71.672V76.52H114.104ZM118.2 72.024C118.733 72.024 119.203 71.9013 119.608 71.656C120.013 71.4 120.333 71.048 120.568 70.6C120.803 70.152 120.92 69.6293 120.92 69.032C120.92 68.4347 120.803 67.912 120.568 67.464C120.333 67.016 120.013 66.6693 119.608 66.424C119.203 66.168 118.733 66.04 118.2 66.04C117.667 66.04 117.197 66.168 116.792 66.424C116.387 66.6693 116.067 67.016 115.832 67.464C115.597 67.912 115.48 68.4347 115.48 69.032C115.48 69.6293 115.597 70.152 115.832 70.6C116.067 71.048 116.387 71.4 116.792 71.656C117.197 71.9013 117.667 72.024 118.2 72.024ZM127.719 73.192C126.962 73.192 126.29 73.0213 125.703 72.68C125.116 72.328 124.652 71.8427 124.311 71.224C123.98 70.6053 123.815 69.8747 123.815 69.032C123.815 68.2 123.98 67.4747 124.311 66.856C124.642 66.2267 125.1 65.7413 125.687 65.4C126.284 65.048 126.972 64.872 127.751 64.872C128.519 64.872 129.18 65.048 129.735 65.4C130.3 65.7413 130.732 66.1947 131.031 66.76C131.33 67.3253 131.479 67.9333 131.479 68.584C131.479 68.7013 131.474 68.8187 131.463 68.936C131.463 69.0533 131.463 69.1867 131.463 69.336H125.143C125.175 69.944 125.314 70.4507 125.559 70.856C125.815 71.2507 126.13 71.5493 126.503 71.752C126.887 71.9547 127.292 72.056 127.719 72.056C128.274 72.056 128.738 71.928 129.111 71.672C129.484 71.416 129.756 71.0693 129.927 70.632H131.255C131.042 71.368 130.631 71.9813 130.023 72.472C129.426 72.952 128.658 73.192 127.719 73.192ZM127.719 66.008C127.079 66.008 126.508 66.2053 126.007 66.6C125.516 66.984 125.234 67.5493 125.159 68.296H130.151C130.119 67.5813 129.874 67.0213 129.415 66.616C128.956 66.2107 128.391 66.008 127.719 66.008ZM133.26 73V65.064H134.476L134.588 66.584C134.834 66.0613 135.207 65.6453 135.708 65.336C136.21 65.0267 136.828 64.872 137.564 64.872V66.28H137.196C136.727 66.28 136.295 66.3653 135.9 66.536C135.506 66.696 135.191 66.9733 134.956 67.368C134.722 67.7627 134.604 68.3067 134.604 69V73H133.26ZM142.209 73C141.483 73 140.913 72.824 140.497 72.472C140.081 72.12 139.873 71.4853 139.873 70.568V66.2H138.497V65.064H139.873L140.049 63.16H141.217V65.064H143.553V66.2H141.217V70.568C141.217 71.0693 141.318 71.4107 141.521 71.592C141.723 71.7627 142.081 71.848 142.593 71.848H143.425V73H142.209ZM149.575 73V61.8H150.919V73H149.575ZM153.213 73V65.064H154.429L154.509 66.488C154.765 65.9867 155.133 65.592 155.613 65.304C156.093 65.016 156.637 64.872 157.245 64.872C158.184 64.872 158.931 65.16 159.485 65.736C160.051 66.3013 160.333 67.176 160.333 68.36V73H158.989V68.504C158.989 66.8507 158.307 66.024 156.941 66.024C156.259 66.024 155.688 66.2747 155.229 66.776C154.781 67.2667 154.557 67.9707 154.557 68.888V73H153.213ZM165.41 73.192C164.46 73.192 163.671 72.952 163.042 72.472C162.412 71.992 162.044 71.3413 161.938 70.52H163.314C163.399 70.936 163.618 71.2987 163.97 71.608C164.332 71.9067 164.818 72.056 165.426 72.056C165.991 72.056 166.407 71.9387 166.674 71.704C166.94 71.4587 167.074 71.1707 167.074 70.84C167.074 70.36 166.898 70.04 166.546 69.88C166.204 69.72 165.719 69.576 165.09 69.448C164.663 69.3627 164.236 69.24 163.81 69.08C163.383 68.92 163.026 68.696 162.738 68.408C162.45 68.1093 162.306 67.72 162.306 67.24C162.306 66.5467 162.562 65.9813 163.074 65.544C163.596 65.096 164.3 64.872 165.186 64.872C166.028 64.872 166.716 65.0853 167.25 65.512C167.794 65.928 168.108 66.5253 168.194 67.304H166.866C166.812 66.8987 166.636 66.584 166.338 66.36C166.05 66.1253 165.66 66.008 165.17 66.008C164.69 66.008 164.316 66.1093 164.05 66.312C163.794 66.5147 163.666 66.7813 163.666 67.112C163.666 67.432 163.831 67.6827 164.162 67.864C164.503 68.0453 164.962 68.2 165.538 68.328C166.028 68.4347 166.492 68.568 166.93 68.728C167.378 68.8773 167.74 69.1067 168.018 69.416C168.306 69.7147 168.45 70.152 168.45 70.728C168.46 71.4427 168.188 72.0347 167.634 72.504C167.09 72.9627 166.348 73.192 165.41 73.192ZM173.146 73C172.421 73 171.85 72.824 171.434 72.472C171.018 72.12 170.81 71.4853 170.81 70.568V66.2H169.434V65.064H170.81L170.986 63.16H172.154V65.064H174.49V66.2H172.154V70.568C172.154 71.0693 172.256 71.4107 172.458 71.592C172.661 71.7627 173.018 71.848 173.53 71.848H174.362V73H173.146ZM176.198 73V65.064H177.414L177.526 66.584C177.771 66.0613 178.144 65.6453 178.646 65.336C179.147 65.0267 179.766 64.872 180.502 64.872V66.28H180.134C179.664 66.28 179.232 66.3653 178.838 66.536C178.443 66.696 178.128 66.9733 177.894 67.368C177.659 67.7627 177.542 68.3067 177.542 69V73H176.198ZM184.906 73.192C183.968 73.192 183.221 72.9093 182.666 72.344C182.112 71.768 181.834 70.888 181.834 69.704V65.064H183.178V69.56C183.178 71.2133 183.856 72.04 185.21 72.04C185.904 72.04 186.474 71.7947 186.922 71.304C187.381 70.8027 187.61 70.0933 187.61 69.176V65.064H188.954V73H187.738L187.642 71.576C187.397 72.0773 187.029 72.472 186.538 72.76C186.058 73.048 185.514 73.192 184.906 73.192ZM194.815 73.192C194.057 73.192 193.375 73.0213 192.767 72.68C192.169 72.328 191.695 71.8427 191.343 71.224C191.001 70.5947 190.831 69.864 190.831 69.032C190.831 68.2 191.001 67.4747 191.343 66.856C191.695 66.2267 192.169 65.7413 192.767 65.4C193.375 65.048 194.057 64.872 194.815 64.872C195.753 64.872 196.543 65.1173 197.183 65.608C197.833 66.0987 198.244 66.7547 198.415 67.576H197.039C196.932 67.0853 196.671 66.7067 196.255 66.44C195.839 66.1627 195.353 66.024 194.799 66.024C194.351 66.024 193.929 66.136 193.535 66.36C193.14 66.584 192.82 66.92 192.575 67.368C192.329 67.816 192.207 68.3707 192.207 69.032C192.207 69.6933 192.329 70.248 192.575 70.696C192.82 71.144 193.14 71.4853 193.535 71.72C193.929 71.944 194.351 72.056 194.799 72.056C195.353 72.056 195.839 71.9227 196.255 71.656C196.671 71.3787 196.932 70.9893 197.039 70.488H198.415C198.255 71.288 197.849 71.9387 197.199 72.44C196.548 72.9413 195.753 73.192 194.815 73.192ZM203.209 73C202.483 73 201.913 72.824 201.497 72.472C201.081 72.12 200.873 71.4853 200.873 70.568V66.2H199.497V65.064H200.873L201.049 63.16H202.217V65.064H204.553V66.2H202.217V70.568C202.217 71.0693 202.318 71.4107 202.521 71.592C202.723 71.7627 203.081 71.848 203.593 71.848H204.425V73H203.209ZM209.658 73.192C208.911 73.192 208.239 73.0213 207.642 72.68C207.044 72.3387 206.57 71.8587 206.218 71.24C205.876 70.6107 205.706 69.8747 205.706 69.032C205.706 68.1893 205.882 67.4587 206.234 66.84C206.586 66.2107 207.06 65.7253 207.658 65.384C208.266 65.0427 208.943 64.872 209.69 64.872C210.436 64.872 211.108 65.0427 211.706 65.384C212.303 65.7253 212.772 66.2107 213.114 66.84C213.466 67.4587 213.642 68.1893 213.642 69.032C213.642 69.8747 213.466 70.6107 213.114 71.24C212.762 71.8587 212.282 72.3387 211.674 72.68C211.076 73.0213 210.404 73.192 209.658 73.192ZM209.658 72.04C210.116 72.04 210.543 71.928 210.938 71.704C211.332 71.48 211.652 71.144 211.898 70.696C212.143 70.248 212.266 69.6933 212.266 69.032C212.266 68.3707 212.143 67.816 211.898 67.368C211.663 66.92 211.348 66.584 210.954 66.36C210.559 66.136 210.138 66.024 209.69 66.024C209.231 66.024 208.804 66.136 208.41 66.36C208.015 66.584 207.695 66.92 207.45 67.368C207.204 67.816 207.082 68.3707 207.082 69.032C207.082 69.6933 207.204 70.248 207.45 70.696C207.695 71.144 208.01 71.48 208.394 71.704C208.788 71.928 209.21 72.04 209.658 72.04ZM215.51 73V65.064H216.726L216.838 66.584C217.084 66.0613 217.457 65.6453 217.958 65.336C218.46 65.0267 219.078 64.872 219.814 64.872V66.28H219.446C218.977 66.28 218.545 66.3653 218.15 66.536C217.756 66.696 217.441 66.9733 217.206 67.368C216.972 67.7627 216.854 68.3067 216.854 69V73H215.51ZM224.363 73.192C223.413 73.192 222.624 72.952 221.995 72.472C221.365 71.992 220.997 71.3413 220.891 70.52H222.267C222.352 70.936 222.571 71.2987 222.923 71.608C223.285 71.9067 223.771 72.056 224.379 72.056C224.944 72.056 225.36 71.9387 225.627 71.704C225.893 71.4587 226.027 71.1707 226.027 70.84C226.027 70.36 225.851 70.04 225.499 69.88C225.157 69.72 224.672 69.576 224.043 69.448C223.616 69.3627 223.189 69.24 222.763 69.08C222.336 68.92 221.979 68.696 221.691 68.408C221.403 68.1093 221.259 67.72 221.259 67.24C221.259 66.5467 221.515 65.9813 222.027 65.544C222.549 65.096 223.253 64.872 224.139 64.872C224.981 64.872 225.669 65.0853 226.203 65.512C226.747 65.928 227.061 66.5253 227.147 67.304H225.819C225.765 66.8987 225.589 66.584 225.291 66.36C225.003 66.1253 224.613 66.008 224.123 66.008C223.643 66.008 223.269 66.1093 223.003 66.312C222.747 66.5147 222.619 66.7813 222.619 67.112C222.619 67.432 222.784 67.6827 223.115 67.864C223.456 68.0453 223.915 68.2 224.491 68.328C224.981 68.4347 225.445 68.568 225.883 68.728C226.331 68.8773 226.693 69.1067 226.971 69.416C227.259 69.7147 227.403 70.152 227.403 70.728C227.413 71.4427 227.141 72.0347 226.587 72.504C226.043 72.9627 225.301 73.192 224.363 73.192Z" fill="#086CF9"/>
</svg>
