<svg width="214" height="80" viewBox="0 0 214 80" fill="none" xmlns="http://www.w3.org/2000/svg">
<g clip-path="url(#clip0_28_739)">
<path d="M21.4645 29.3047L25.9456 33.7856L36 23.8812V27.9887H40.2353V16.7051H28.9517V20.9404H32.9503L25.968 27.8183L21.4645 23.315L3.44897 41.3306L6.44375 44.3254L21.4645 29.3047Z" fill="#086CF9"/>
<path d="M12.7058 75.9997H21.1764C21.1764 74.603 21.1764 52.0882 21.1764 50.5879H12.7058V75.9997Z" fill="#086CF9"/>
<path d="M25.4116 76.0006H33.8822C33.8822 74.6769 33.8822 48.3311 33.8822 46.3535H25.4116V76.0006Z" fill="#086CF9"/>
<path d="M72.0003 25.1765L64.0591 14.5882L72.0003 4C70.5744 4 45.777 4 44.4709 4V42.1176H38.1179V76H55.0591V42.1176H48.7062V25.1765H72.0003Z" fill="#086CF9"/>
<path d="M8.47059 54.8232H0V75.9997H8.47059C8.47059 75.0221 8.47059 55.7974 8.47059 54.8232Z" fill="#086CF9"/>
</g>
<path d="M107.34 36.432C105.612 36.432 104.052 36.132 102.66 35.532C101.268 34.908 100.152 34.032 99.312 32.904C98.496 31.776 98.088 30.468 98.088 28.98C98.088 27.444 98.484 26.1 99.276 24.948C100.092 23.796 101.16 22.968 102.48 22.464C101.328 21.96 100.416 21.24 99.744 20.304C99.072 19.344 98.736 18.276 98.736 17.1C98.736 15.9 99.06 14.796 99.708 13.788C100.356 12.756 101.316 11.928 102.588 11.304C103.884 10.68 105.468 10.368 107.34 10.368C109.212 10.368 110.784 10.68 112.056 11.304C113.328 11.928 114.288 12.756 114.936 13.788C115.584 14.796 115.908 15.9 115.908 17.1C115.908 18.252 115.56 19.32 114.864 20.304C114.192 21.264 113.292 21.984 112.164 22.464C113.508 22.968 114.576 23.796 115.368 24.948C116.16 26.1 116.556 27.444 116.556 28.98C116.556 30.468 116.148 31.776 115.332 32.904C114.516 34.032 113.4 34.908 111.984 35.532C110.592 36.132 109.044 36.432 107.34 36.432ZM107.34 21.096C108.588 21.096 109.572 20.772 110.292 20.124C111.012 19.476 111.372 18.648 111.372 17.64C111.372 16.536 111.012 15.672 110.292 15.048C109.596 14.424 108.612 14.112 107.34 14.112C106.044 14.112 105.048 14.424 104.352 15.048C103.656 15.672 103.308 16.536 103.308 17.64C103.308 18.672 103.656 19.512 104.352 20.16C105.072 20.784 106.068 21.096 107.34 21.096ZM107.34 32.58C108.876 32.58 110.04 32.208 110.832 31.464C111.624 30.696 112.02 29.736 112.02 28.584C112.02 27.312 111.6 26.316 110.76 25.596C109.944 24.876 108.804 24.516 107.34 24.516C105.876 24.516 104.712 24.876 103.848 25.596C103.008 26.316 102.588 27.312 102.588 28.584C102.588 29.736 102.984 30.696 103.776 31.464C104.592 32.208 105.78 32.58 107.34 32.58ZM131.421 36.432C129.093 36.432 127.101 35.892 125.445 34.812C123.789 33.708 122.505 32.184 121.593 30.24C120.705 28.272 120.261 25.992 120.261 23.4C120.261 20.832 120.705 18.564 121.593 16.596C122.505 14.628 123.789 13.104 125.445 12.024C127.101 10.92 129.093 10.368 131.421 10.368C133.749 10.368 135.741 10.92 137.397 12.024C139.053 13.104 140.325 14.628 141.213 16.596C142.125 18.564 142.581 20.832 142.581 23.4C142.581 25.992 142.125 28.272 141.213 30.24C140.325 32.184 139.053 33.708 137.397 34.812C135.741 35.892 133.749 36.432 131.421 36.432ZM131.421 32.292C133.317 32.292 134.865 31.5 136.065 29.916C137.265 28.332 137.865 26.16 137.865 23.4C137.865 20.64 137.265 18.468 136.065 16.884C134.865 15.3 133.317 14.508 131.421 14.508C129.501 14.508 127.941 15.3 126.741 16.884C125.565 18.468 124.977 20.64 124.977 23.4C124.977 26.16 125.565 28.332 126.741 29.916C127.941 31.5 129.501 32.292 131.421 32.292ZM156.979 36.432C154.651 36.432 152.659 35.892 151.003 34.812C149.347 33.708 148.063 32.184 147.151 30.24C146.263 28.272 145.819 25.992 145.819 23.4C145.819 20.832 146.263 18.564 147.151 16.596C148.063 14.628 149.347 13.104 151.003 12.024C152.659 10.92 154.651 10.368 156.979 10.368C159.307 10.368 161.299 10.92 162.955 12.024C164.611 13.104 165.883 14.628 166.771 16.596C167.683 18.564 168.139 20.832 168.139 23.4C168.139 25.992 167.683 28.272 166.771 30.24C165.883 32.184 164.611 33.708 162.955 34.812C161.299 35.892 159.307 36.432 156.979 36.432ZM156.979 32.292C158.875 32.292 160.423 31.5 161.623 29.916C162.823 28.332 163.423 26.16 163.423 23.4C163.423 20.64 162.823 18.468 161.623 16.884C160.423 15.3 158.875 14.508 156.979 14.508C155.059 14.508 153.499 15.3 152.299 16.884C151.123 18.468 150.535 20.64 150.535 23.4C150.535 26.16 151.123 28.332 152.299 29.916C153.499 31.5 155.059 32.292 156.979 32.292ZM171.774 27.504V23.652H178.542V17.424H182.466V23.652H189.198V27.504H182.466V33.732H178.542V27.504H171.774Z" fill="#222222"/>
<path d="M100.752 73.192C99.9307 73.192 99.216 73.0427 98.608 72.744C98 72.4453 97.5307 72.0293 97.2 71.496C96.8693 70.9627 96.704 70.344 96.704 69.64H98.112C98.112 70.0773 98.2133 70.4827 98.416 70.856C98.6187 71.2187 98.912 71.512 99.296 71.736C99.6907 71.9493 100.176 72.056 100.752 72.056C101.509 72.056 102.096 71.8747 102.512 71.512C102.928 71.1493 103.136 70.696 103.136 70.152C103.136 69.704 103.04 69.3467 102.848 69.08C102.656 68.8027 102.395 68.5787 102.064 68.408C101.744 68.2373 101.371 68.088 100.944 67.96C100.528 67.832 100.091 67.688 99.632 67.528C98.768 67.2293 98.128 66.8613 97.712 66.424C97.296 65.976 97.088 65.3947 97.088 64.68C97.0773 64.0827 97.216 63.5547 97.504 63.096C97.792 62.6267 98.1973 62.264 98.72 62.008C99.2533 61.7413 99.8827 61.608 100.608 61.608C101.323 61.608 101.941 61.7413 102.464 62.008C102.997 62.2747 103.408 62.6427 103.696 63.112C103.995 63.5813 104.149 64.1147 104.16 64.712H102.752C102.752 64.4027 102.672 64.0987 102.512 63.8C102.352 63.4907 102.107 63.24 101.776 63.048C101.456 62.856 101.051 62.76 100.56 62.76C99.952 62.7493 99.4507 62.904 99.056 63.224C98.672 63.544 98.48 63.9867 98.48 64.552C98.48 65.032 98.6133 65.4 98.88 65.656C99.1573 65.912 99.5413 66.1253 100.032 66.296C100.523 66.456 101.088 66.6427 101.728 66.856C102.261 67.048 102.741 67.272 103.168 67.528C103.595 67.784 103.925 68.1147 104.16 68.52C104.405 68.9253 104.528 69.4427 104.528 70.072C104.528 70.6053 104.389 71.112 104.112 71.592C103.835 72.0613 103.413 72.4453 102.848 72.744C102.293 73.0427 101.595 73.192 100.752 73.192ZM109.25 73.192C108.311 73.192 107.565 72.9093 107.01 72.344C106.455 71.768 106.178 70.888 106.178 69.704V65.064H107.522V69.56C107.522 71.2133 108.199 72.04 109.554 72.04C110.247 72.04 110.818 71.7947 111.266 71.304C111.725 70.8027 111.954 70.0933 111.954 69.176V65.064H113.298V73H112.082L111.986 71.576C111.741 72.0773 111.373 72.472 110.882 72.76C110.402 73.048 109.858 73.192 109.25 73.192ZM119.158 73.192C118.401 73.192 117.718 73.0213 117.11 72.68C116.513 72.328 116.038 71.8427 115.686 71.224C115.345 70.5947 115.174 69.864 115.174 69.032C115.174 68.2 115.345 67.4747 115.686 66.856C116.038 66.2267 116.513 65.7413 117.11 65.4C117.718 65.048 118.401 64.872 119.158 64.872C120.097 64.872 120.886 65.1173 121.526 65.608C122.177 66.0987 122.588 66.7547 122.758 67.576H121.382C121.276 67.0853 121.014 66.7067 120.598 66.44C120.182 66.1627 119.697 66.024 119.142 66.024C118.694 66.024 118.273 66.136 117.878 66.36C117.484 66.584 117.164 66.92 116.918 67.368C116.673 67.816 116.55 68.3707 116.55 69.032C116.55 69.6933 116.673 70.248 116.918 70.696C117.164 71.144 117.484 71.4853 117.878 71.72C118.273 71.944 118.694 72.056 119.142 72.056C119.697 72.056 120.182 71.9227 120.598 71.656C121.014 71.3787 121.276 70.9893 121.382 70.488H122.758C122.598 71.288 122.193 71.9387 121.542 72.44C120.892 72.9413 120.097 73.192 119.158 73.192ZM128.283 73.192C127.526 73.192 126.843 73.0213 126.235 72.68C125.638 72.328 125.163 71.8427 124.811 71.224C124.47 70.5947 124.299 69.864 124.299 69.032C124.299 68.2 124.47 67.4747 124.811 66.856C125.163 66.2267 125.638 65.7413 126.235 65.4C126.843 65.048 127.526 64.872 128.283 64.872C129.222 64.872 130.011 65.1173 130.651 65.608C131.302 66.0987 131.713 66.7547 131.883 67.576H130.507C130.401 67.0853 130.139 66.7067 129.723 66.44C129.307 66.1627 128.822 66.024 128.267 66.024C127.819 66.024 127.398 66.136 127.003 66.36C126.609 66.584 126.289 66.92 126.043 67.368C125.798 67.816 125.675 68.3707 125.675 69.032C125.675 69.6933 125.798 70.248 126.043 70.696C126.289 71.144 126.609 71.4853 127.003 71.72C127.398 71.944 127.819 72.056 128.267 72.056C128.822 72.056 129.307 71.9227 129.723 71.656C130.139 71.3787 130.401 70.9893 130.507 70.488H131.883C131.723 71.288 131.318 71.9387 130.667 72.44C130.017 72.9413 129.222 73.192 128.283 73.192ZM137.328 73.192C136.571 73.192 135.899 73.0213 135.312 72.68C134.726 72.328 134.262 71.8427 133.92 71.224C133.59 70.6053 133.424 69.8747 133.424 69.032C133.424 68.2 133.59 67.4747 133.92 66.856C134.251 66.2267 134.71 65.7413 135.296 65.4C135.894 65.048 136.582 64.872 137.36 64.872C138.128 64.872 138.79 65.048 139.344 65.4C139.91 65.7413 140.342 66.1947 140.64 66.76C140.939 67.3253 141.088 67.9333 141.088 68.584C141.088 68.7013 141.083 68.8187 141.072 68.936C141.072 69.0533 141.072 69.1867 141.072 69.336H134.752C134.784 69.944 134.923 70.4507 135.168 70.856C135.424 71.2507 135.739 71.5493 136.112 71.752C136.496 71.9547 136.902 72.056 137.328 72.056C137.883 72.056 138.347 71.928 138.72 71.672C139.094 71.416 139.366 71.0693 139.536 70.632H140.864C140.651 71.368 140.24 71.9813 139.632 72.472C139.035 72.952 138.267 73.192 137.328 73.192ZM137.328 66.008C136.688 66.008 136.118 66.2053 135.616 66.6C135.126 66.984 134.843 67.5493 134.768 68.296H139.76C139.728 67.5813 139.483 67.0213 139.024 66.616C138.566 66.2107 138 66.008 137.328 66.008ZM145.91 73.192C144.96 73.192 144.171 72.952 143.542 72.472C142.912 71.992 142.544 71.3413 142.438 70.52H143.814C143.899 70.936 144.118 71.2987 144.47 71.608C144.832 71.9067 145.318 72.056 145.926 72.056C146.491 72.056 146.907 71.9387 147.174 71.704C147.44 71.4587 147.574 71.1707 147.574 70.84C147.574 70.36 147.398 70.04 147.046 69.88C146.704 69.72 146.219 69.576 145.59 69.448C145.163 69.3627 144.736 69.24 144.31 69.08C143.883 68.92 143.526 68.696 143.238 68.408C142.95 68.1093 142.806 67.72 142.806 67.24C142.806 66.5467 143.062 65.9813 143.574 65.544C144.096 65.096 144.8 64.872 145.686 64.872C146.528 64.872 147.216 65.0853 147.75 65.512C148.294 65.928 148.608 66.5253 148.694 67.304H147.366C147.312 66.8987 147.136 66.584 146.838 66.36C146.55 66.1253 146.16 66.008 145.67 66.008C145.19 66.008 144.816 66.1093 144.55 66.312C144.294 66.5147 144.166 66.7813 144.166 67.112C144.166 67.432 144.331 67.6827 144.662 67.864C145.003 68.0453 145.462 68.2 146.038 68.328C146.528 68.4347 146.992 68.568 147.43 68.728C147.878 68.8773 148.24 69.1067 148.518 69.416C148.806 69.7147 148.95 70.152 148.95 70.728C148.96 71.4427 148.688 72.0347 148.134 72.504C147.59 72.9627 146.848 73.192 145.91 73.192ZM153.91 73.192C152.96 73.192 152.171 72.952 151.542 72.472C150.912 71.992 150.544 71.3413 150.438 70.52H151.814C151.899 70.936 152.118 71.2987 152.47 71.608C152.832 71.9067 153.318 72.056 153.926 72.056C154.491 72.056 154.907 71.9387 155.174 71.704C155.44 71.4587 155.574 71.1707 155.574 70.84C155.574 70.36 155.398 70.04 155.046 69.88C154.704 69.72 154.219 69.576 153.59 69.448C153.163 69.3627 152.736 69.24 152.31 69.08C151.883 68.92 151.526 68.696 151.238 68.408C150.95 68.1093 150.806 67.72 150.806 67.24C150.806 66.5467 151.062 65.9813 151.574 65.544C152.096 65.096 152.8 64.872 153.686 64.872C154.528 64.872 155.216 65.0853 155.75 65.512C156.294 65.928 156.608 66.5253 156.694 67.304H155.366C155.312 66.8987 155.136 66.584 154.838 66.36C154.55 66.1253 154.16 66.008 153.67 66.008C153.19 66.008 152.816 66.1093 152.55 66.312C152.294 66.5147 152.166 66.7813 152.166 67.112C152.166 67.432 152.331 67.6827 152.662 67.864C153.003 68.0453 153.462 68.2 154.038 68.328C154.528 68.4347 154.992 68.568 155.43 68.728C155.878 68.8773 156.24 69.1067 156.518 69.416C156.806 69.7147 156.95 70.152 156.95 70.728C156.96 71.4427 156.688 72.0347 156.134 72.504C155.59 72.9627 154.848 73.192 153.91 73.192ZM166.752 73.192C165.931 73.192 165.216 73.0427 164.608 72.744C164 72.4453 163.531 72.0293 163.2 71.496C162.869 70.9627 162.704 70.344 162.704 69.64H164.112C164.112 70.0773 164.213 70.4827 164.416 70.856C164.619 71.2187 164.912 71.512 165.296 71.736C165.691 71.9493 166.176 72.056 166.752 72.056C167.509 72.056 168.096 71.8747 168.512 71.512C168.928 71.1493 169.136 70.696 169.136 70.152C169.136 69.704 169.04 69.3467 168.848 69.08C168.656 68.8027 168.395 68.5787 168.064 68.408C167.744 68.2373 167.371 68.088 166.944 67.96C166.528 67.832 166.091 67.688 165.632 67.528C164.768 67.2293 164.128 66.8613 163.712 66.424C163.296 65.976 163.088 65.3947 163.088 64.68C163.077 64.0827 163.216 63.5547 163.504 63.096C163.792 62.6267 164.197 62.264 164.72 62.008C165.253 61.7413 165.883 61.608 166.608 61.608C167.323 61.608 167.941 61.7413 168.464 62.008C168.997 62.2747 169.408 62.6427 169.696 63.112C169.995 63.5813 170.149 64.1147 170.16 64.712H168.752C168.752 64.4027 168.672 64.0987 168.512 63.8C168.352 63.4907 168.107 63.24 167.776 63.048C167.456 62.856 167.051 62.76 166.56 62.76C165.952 62.7493 165.451 62.904 165.056 63.224C164.672 63.544 164.48 63.9867 164.48 64.552C164.48 65.032 164.613 65.4 164.88 65.656C165.157 65.912 165.541 66.1253 166.032 66.296C166.523 66.456 167.088 66.6427 167.728 66.856C168.261 67.048 168.741 67.272 169.168 67.528C169.595 67.784 169.925 68.1147 170.16 68.52C170.405 68.9253 170.528 69.4427 170.528 70.072C170.528 70.6053 170.389 71.112 170.112 71.592C169.835 72.0613 169.413 72.4453 168.848 72.744C168.293 73.0427 167.595 73.192 166.752 73.192ZM175.49 73C174.765 73 174.194 72.824 173.778 72.472C173.362 72.12 173.154 71.4853 173.154 70.568V66.2H171.778V65.064H173.154L173.33 63.16H174.498V65.064H176.834V66.2H174.498V70.568C174.498 71.0693 174.599 71.4107 174.802 71.592C175.005 71.7627 175.362 71.848 175.874 71.848H176.706V73H175.49ZM181.939 73.192C181.192 73.192 180.52 73.0213 179.923 72.68C179.325 72.3387 178.851 71.8587 178.499 71.24C178.157 70.6107 177.987 69.8747 177.987 69.032C177.987 68.1893 178.163 67.4587 178.515 66.84C178.867 66.2107 179.341 65.7253 179.939 65.384C180.547 65.0427 181.224 64.872 181.971 64.872C182.717 64.872 183.389 65.0427 183.987 65.384C184.584 65.7253 185.053 66.2107 185.395 66.84C185.747 67.4587 185.923 68.1893 185.923 69.032C185.923 69.8747 185.747 70.6107 185.395 71.24C185.043 71.8587 184.563 72.3387 183.955 72.68C183.357 73.0213 182.685 73.192 181.939 73.192ZM181.939 72.04C182.397 72.04 182.824 71.928 183.219 71.704C183.613 71.48 183.933 71.144 184.179 70.696C184.424 70.248 184.547 69.6933 184.547 69.032C184.547 68.3707 184.424 67.816 184.179 67.368C183.944 66.92 183.629 66.584 183.235 66.36C182.84 66.136 182.419 66.024 181.971 66.024C181.512 66.024 181.085 66.136 180.691 66.36C180.296 66.584 179.976 66.92 179.731 67.368C179.485 67.816 179.363 68.3707 179.363 69.032C179.363 69.6933 179.485 70.248 179.731 70.696C179.976 71.144 180.291 71.48 180.675 71.704C181.069 71.928 181.491 72.04 181.939 72.04ZM187.792 73V65.064H189.008L189.12 66.584C189.365 66.0613 189.738 65.6453 190.24 65.336C190.741 65.0267 191.36 64.872 192.096 64.872V66.28H191.728C191.258 66.28 190.826 66.3653 190.432 66.536C190.037 66.696 189.722 66.9733 189.488 67.368C189.253 67.7627 189.136 68.3067 189.136 69V73H187.792ZM194.42 63.304C194.153 63.304 193.929 63.2187 193.748 63.048C193.577 62.8667 193.492 62.6427 193.492 62.376C193.492 62.12 193.577 61.9067 193.748 61.736C193.929 61.5653 194.153 61.48 194.42 61.48C194.676 61.48 194.895 61.5653 195.076 61.736C195.257 61.9067 195.348 62.12 195.348 62.376C195.348 62.6427 195.257 62.8667 195.076 63.048C194.895 63.2187 194.676 63.304 194.42 63.304ZM193.748 73V65.064H195.092V73H193.748ZM201 73.192C200.243 73.192 199.571 73.0213 198.984 72.68C198.397 72.328 197.933 71.8427 197.592 71.224C197.261 70.6053 197.096 69.8747 197.096 69.032C197.096 68.2 197.261 67.4747 197.592 66.856C197.923 66.2267 198.381 65.7413 198.968 65.4C199.565 65.048 200.253 64.872 201.032 64.872C201.8 64.872 202.461 65.048 203.016 65.4C203.581 65.7413 204.013 66.1947 204.312 66.76C204.611 67.3253 204.76 67.9333 204.76 68.584C204.76 68.7013 204.755 68.8187 204.744 68.936C204.744 69.0533 204.744 69.1867 204.744 69.336H198.424C198.456 69.944 198.595 70.4507 198.84 70.856C199.096 71.2507 199.411 71.5493 199.784 71.752C200.168 71.9547 200.573 72.056 201 72.056C201.555 72.056 202.019 71.928 202.392 71.672C202.765 71.416 203.037 71.0693 203.208 70.632H204.536C204.323 71.368 203.912 71.9813 203.304 72.472C202.707 72.952 201.939 73.192 201 73.192ZM201 66.008C200.36 66.008 199.789 66.2053 199.288 66.6C198.797 66.984 198.515 67.5493 198.44 68.296H203.432C203.4 67.5813 203.155 67.0213 202.696 66.616C202.237 66.2107 201.672 66.008 201 66.008ZM209.582 73.192C208.632 73.192 207.843 72.952 207.214 72.472C206.584 71.992 206.216 71.3413 206.11 70.52H207.486C207.571 70.936 207.79 71.2987 208.142 71.608C208.504 71.9067 208.99 72.056 209.598 72.056C210.163 72.056 210.579 71.9387 210.846 71.704C211.112 71.4587 211.246 71.1707 211.246 70.84C211.246 70.36 211.07 70.04 210.718 69.88C210.376 69.72 209.891 69.576 209.262 69.448C208.835 69.3627 208.408 69.24 207.982 69.08C207.555 68.92 207.198 68.696 206.91 68.408C206.622 68.1093 206.478 67.72 206.478 67.24C206.478 66.5467 206.734 65.9813 207.246 65.544C207.768 65.096 208.472 64.872 209.358 64.872C210.2 64.872 210.888 65.0853 211.422 65.512C211.966 65.928 212.28 66.5253 212.366 67.304H211.038C210.984 66.8987 210.808 66.584 210.51 66.36C210.222 66.1253 209.832 66.008 209.342 66.008C208.862 66.008 208.488 66.1093 208.222 66.312C207.966 66.5147 207.838 66.7813 207.838 67.112C207.838 67.432 208.003 67.6827 208.334 67.864C208.675 68.0453 209.134 68.2 209.71 68.328C210.2 68.4347 210.664 68.568 211.102 68.728C211.55 68.8773 211.912 69.1067 212.19 69.416C212.478 69.7147 212.622 70.152 212.622 70.728C212.632 71.4427 212.36 72.0347 211.806 72.504C211.262 72.9627 210.52 73.192 209.582 73.192Z" fill="#086CF9"/>
<defs>
<clipPath id="clip0_28_739">
<rect width="72" height="72" fill="white" transform="translate(0 4)"/>
</clipPath>
</defs>
</svg>
